# xmcd
#
# Track frame offsets:
#	150
#	3159
#	18221
#	31887
#	51453
#	70661
#	84371
#	98143
#	112135
#	133120
#	149522
#	174367
#
# Disc length: 2376 seconds
#
# Revision: 0
# Processed by: cddbd v1.4PL0 Copyright (c) Steve Scherf et al.
# Submitted via: dBpowerAMP V4.0
#
DISCID=9909460c
DTITLE=Johner Brothers - The Perfect Life
DYEAR=1900
DGENRE=Country
TTITLE0=One Hot August Day
TTITLE1=The Perfect Life
TTITLE2=Still In Love With You
TTITLE3=Maybe She'll Change Her Mind
TTITLE4=See Jane Run
TTITLE5=Coulda, Shoulda, Woulda
TTITLE6=I Don't Wanna Know
TTITLE7=Somewhere In The Middle Of Nowhere
TTITLE8=Lonely After All
TTITLE9=Head Over Heals In Love
TTITLE10=I Can't Make You Love Me
TTITLE11=Reprise: Still In Love With You
EXTD=The Perfect Life
EXTT0=
EXTT1=
EXTT2=
EXTT3=
EXTT4=
EXTT5=
EXTT6=
EXTT7=
EXTT8=
EXTT9=
EXTT10=
EXTT11=
PLAYORDER=
